<svg width="9" height="10" viewBox="0 0 9 10" fill="none" xmlns="http://www.w3.org/2000/svg">
<path d="M7.93688 8.7154C7.86141 8.79089 7.77066 8.84499 7.68468 8.86575C7.59869 8.88651 7.52445 8.87224 7.47835 8.8261L0.17391 1.52216C0.0778677 1.42613 0.127411 1.22086 0.284615 1.06367C0.441818 0.90648 0.647097 0.85694 0.743138 0.952975L8.04757 8.25689C8.09371 8.30299 8.10798 8.37722 8.08722 8.4632C8.06648 8.54919 8.01237 8.63994 7.93688 8.7154Z" fill="#07319D"/>
<path d="M8.04259 1.7382L0.738135 9.04214C0.642093 9.13818 0.437934 9.08976 0.282113 8.93395C0.126291 8.77814 0.0778679 8.57399 0.17391 8.47796L7.47835 1.17402C7.57441 1.07797 7.77858 1.12643 7.93438 1.28222C8.09017 1.43801 8.13864 1.64216 8.04259 1.7382Z" fill="#07319D"/>
</svg>
