<svg width="200" height="48" viewBox="0 0 200 48" fill="none" xmlns="http://www.w3.org/2000/svg">
<path d="M11.472 3.408C9.328 4.272 7.664 5.6 6.48 7.392C5.328 9.152 4.752 11.312 4.752 13.872C4.752 15.056 4.864 15.888 5.088 16.368C5.312 16.816 5.424 17.072 5.424 17.136C3.696 17.136 2.4 16.784 1.536 16.08C0.704 15.344 0.288 14.144 0.288 12.48C0.288 10.432 1.12 8.448 2.784 6.528C4.48 4.576 6.64 3.008 9.264 1.824C11.888 0.607998 14.512 -2.86102e-06 17.136 -2.86102e-06C17.584 -2.86102e-06 18.224 0.0319977 19.056 0.0959988L11.424 36H4.512L11.472 3.408ZM35.328 36.288C33.376 36.288 31.936 35.776 31.008 34.752C30.112 33.696 29.664 32.4 29.664 30.864C29.664 30.192 29.744 29.44 29.904 28.608C30.064 27.744 30.224 26.912 30.384 26.112C30.576 25.312 30.704 24.8 30.768 24.576C31.024 23.456 31.264 22.352 31.488 21.264C31.712 20.176 31.824 19.296 31.824 18.624C31.824 16.992 31.248 16.176 30.096 16.176C29.264 16.176 28.528 16.592 27.888 17.424C27.248 18.224 26.736 19.28 26.352 20.592L23.088 36H16.176L21.264 12H28.176L27.648 14.496C29.248 12.704 31.12 11.808 33.264 11.808C34.896 11.808 36.192 12.256 37.152 13.152C38.112 14.048 38.592 15.408 38.592 17.232C38.592 18.16 38.48 19.2 38.256 20.352C38.032 21.472 37.712 22.848 37.296 24.48C37.04 25.472 36.8 26.448 36.576 27.408C36.384 28.336 36.288 29.072 36.288 29.616C36.288 30.256 36.432 30.752 36.72 31.104C37.008 31.456 37.504 31.632 38.208 31.632C39.168 31.632 39.936 31.296 40.512 30.624C41.088 29.92 41.664 28.848 42.24 27.408H44.256C43.072 30.928 41.696 33.296 40.128 34.512C38.592 35.696 36.992 36.288 35.328 36.288ZM47.7064 36.288C46.1704 36.288 44.8744 36 43.8184 35.424C42.7624 34.816 41.9784 34.048 41.4664 33.12C40.9544 32.16 40.6984 31.168 40.6984 30.144C40.6984 29.088 40.9544 28.176 41.4664 27.408C41.9464 26.608 42.5384 26.032 43.2424 25.68C44.4904 23.44 45.5784 21.184 46.5064 18.912C47.4344 16.608 48.3144 14.128 49.1464 11.472L56.2504 10.512C56.4104 14.608 56.6824 19.04 57.0664 23.808C57.2264 25.728 57.3064 27.12 57.3064 27.984C57.3064 28.72 57.2424 29.328 57.1144 29.808C58.6184 28.944 59.7704 28.144 60.5704 27.408H62.5864C60.5384 29.776 58.0904 31.776 55.2424 33.408C54.3144 34.4 53.1624 35.136 51.7864 35.616C50.4424 36.064 49.0824 36.288 47.7064 36.288ZM46.1704 32.496C47.3544 32.496 48.3464 32.144 49.1464 31.44C49.9464 30.736 50.3464 29.6 50.3464 28.032C50.3464 27.072 50.2504 25.728 50.0584 24C49.7384 20.352 49.5304 17.904 49.4344 16.656C48.6664 19.184 47.3704 22.208 45.5464 25.728C46.2824 26.112 46.6504 26.672 46.6504 27.408C46.6504 28.016 46.4424 28.56 46.0264 29.04C45.6424 29.52 45.1464 29.76 44.5384 29.76C43.8664 29.76 43.4344 29.552 43.2424 29.136C43.2424 30.288 43.4664 31.136 43.9144 31.68C44.3944 32.224 45.1464 32.496 46.1704 32.496ZM65.3145 36.288C63.7785 36.288 62.5305 35.808 61.5705 34.848C60.6425 33.888 60.1785 32.448 60.1785 30.528C60.1785 29.728 60.3065 28.688 60.5625 27.408L63.4425 13.92H61.8585L62.2425 12H63.8265L65.2665 5.376L72.3705 4.416L70.7385 12H73.6185L73.2345 13.92H70.3545L67.2825 28.32C67.1545 28.8 67.0905 29.312 67.0905 29.856C67.0905 30.496 67.2345 30.96 67.5225 31.248C67.8425 31.504 68.3545 31.632 69.0585 31.632C69.9865 31.632 70.8505 31.248 71.6505 30.48C72.4505 29.68 73.0265 28.656 73.3785 27.408H75.3945C74.2105 30.864 72.6905 33.216 70.8345 34.464C68.9785 35.68 67.1385 36.288 65.3145 36.288ZM79.1194 36.288C77.2954 36.288 75.7754 35.664 74.5594 34.416C73.3434 33.168 72.7354 31.216 72.7354 28.56C72.7354 26.192 73.1994 23.712 74.1274 21.12C75.0874 18.496 76.4954 16.288 78.3514 14.496C80.2394 12.672 82.4794 11.76 85.0714 11.76C86.3834 11.76 87.3594 11.984 87.9994 12.432C88.6394 12.88 88.9594 13.472 88.9594 14.208V14.544L89.4874 12H96.3994L92.9434 28.32C92.8154 28.8 92.7514 29.312 92.7514 29.856C92.7514 31.232 93.4074 31.92 94.7194 31.92C95.6154 31.92 96.3834 31.504 97.0234 30.672C97.6954 29.84 98.2234 28.752 98.6074 27.408H100.623C99.4394 30.864 97.9674 33.216 96.2074 34.464C94.4794 35.68 92.7354 36.288 90.9754 36.288C89.6314 36.288 88.5434 35.92 87.7114 35.184C86.9114 34.416 86.4314 33.312 86.2714 31.872C85.3434 33.184 84.3034 34.256 83.1514 35.088C82.0314 35.888 80.6874 36.288 79.1194 36.288ZM82.2394 31.632C83.0394 31.632 83.8234 31.264 84.5914 30.528C85.3914 29.76 85.9354 28.72 86.2234 27.408L88.5274 16.56C88.5274 16.144 88.3674 15.744 88.0474 15.36C87.7274 14.944 87.2314 14.736 86.5594 14.736C85.2794 14.736 84.1274 15.488 83.1034 16.992C82.0794 18.464 81.2794 20.256 80.7034 22.368C80.1274 24.448 79.8394 26.288 79.8394 27.888C79.8394 29.488 80.0634 30.512 80.5114 30.96C80.9914 31.408 81.5674 31.632 82.2394 31.632ZM107.121 48C105.585 48 104.305 47.6 103.281 46.8C102.257 46 101.745 44.848 101.745 43.344C101.745 41.52 102.481 40.048 103.953 38.928C105.425 37.84 107.297 36.928 109.569 36.192L110.145 33.648C108.513 35.408 106.593 36.288 104.385 36.288C102.561 36.288 101.041 35.664 99.825 34.416C98.609 33.168 98.001 31.216 98.001 28.56C98.001 26.192 98.465 23.712 99.393 21.12C100.353 18.496 101.761 16.288 103.617 14.496C105.505 12.672 107.745 11.76 110.337 11.76C111.649 11.76 112.625 11.984 113.265 12.432C113.905 12.88 114.225 13.472 114.225 14.208V14.496L114.753 12H121.665L116.913 34.272C118.449 33.76 119.681 32.992 120.609 31.968C121.537 30.944 122.321 29.424 122.961 27.408H124.977C124.113 30.256 122.945 32.352 121.473 33.696C120.001 35.008 118.337 35.904 116.481 36.384L115.761 39.84C115.121 42.944 114.017 45.072 112.449 46.224C110.881 47.408 109.105 48 107.121 48ZM107.505 31.632C108.241 31.632 108.993 31.296 109.761 30.624C110.529 29.952 111.057 29.04 111.345 27.888L113.793 16.512C113.793 16.128 113.633 15.744 113.313 15.36C112.993 14.944 112.497 14.736 111.825 14.736C110.545 14.736 109.393 15.488 108.369 16.992C107.345 18.464 106.545 20.256 105.969 22.368C105.393 24.448 105.105 26.288 105.105 27.888C105.105 29.488 105.329 30.512 105.777 30.96C106.257 31.408 106.833 31.632 107.505 31.632ZM106.017 44.256C106.561 44.256 107.089 43.888 107.601 43.152C108.113 42.416 108.513 41.36 108.801 39.984L109.089 38.592C105.953 39.744 104.385 41.104 104.385 42.672C104.385 43.088 104.529 43.456 104.817 43.776C105.105 44.096 105.505 44.256 106.017 44.256ZM126.217 12H133.129L132.505 14.976C133.593 14.016 134.569 13.28 135.433 12.768C136.329 12.256 137.289 12 138.313 12C139.337 12 140.137 12.352 140.713 13.056C141.321 13.76 141.625 14.608 141.625 15.6C141.625 16.528 141.321 17.344 140.713 18.048C140.105 18.752 139.257 19.104 138.169 19.104C137.465 19.104 136.985 18.944 136.729 18.624C136.505 18.272 136.329 17.776 136.201 17.136C136.105 16.72 136.009 16.416 135.913 16.224C135.817 16.032 135.641 15.936 135.385 15.936C134.713 15.936 134.137 16.08 133.657 16.368C133.209 16.624 132.617 17.088 131.881 17.76L128.041 36H121.129L126.217 12ZM146.76 36.288C144.936 36.288 143.416 35.664 142.2 34.416C140.984 33.168 140.376 31.216 140.376 28.56C140.376 26.192 140.84 23.712 141.768 21.12C142.728 18.496 144.136 16.288 145.992 14.496C147.88 12.672 150.12 11.76 152.712 11.76C154.024 11.76 155 11.984 155.64 12.432C156.28 12.88 156.6 13.472 156.6 14.208V14.544L157.128 12H164.04L160.584 28.32C160.456 28.8 160.392 29.312 160.392 29.856C160.392 31.232 161.048 31.92 162.36 31.92C163.256 31.92 164.024 31.504 164.664 30.672C165.336 29.84 165.864 28.752 166.248 27.408H168.264C167.08 30.864 165.608 33.216 163.848 34.464C162.12 35.68 160.376 36.288 158.616 36.288C157.272 36.288 156.184 35.92 155.352 35.184C154.552 34.416 154.072 33.312 153.912 31.872C152.984 33.184 151.944 34.256 150.792 35.088C149.672 35.888 148.328 36.288 146.76 36.288ZM149.88 31.632C150.68 31.632 151.464 31.264 152.232 30.528C153.032 29.76 153.576 28.72 153.864 27.408L156.168 16.56C156.168 16.144 156.008 15.744 155.688 15.36C155.368 14.944 154.872 14.736 154.2 14.736C152.92 14.736 151.768 15.488 150.744 16.992C149.72 18.464 148.92 20.256 148.344 22.368C147.768 24.448 147.48 26.288 147.48 27.888C147.48 29.488 147.704 30.512 148.152 30.96C148.632 31.408 149.208 31.632 149.88 31.632ZM194.634 36.288C192.938 36.288 191.706 35.776 190.938 34.752C190.17 33.728 189.786 32.432 189.786 30.864C189.786 30.192 189.866 29.44 190.026 28.608C190.186 27.744 190.346 26.912 190.506 26.112C190.698 25.312 190.826 24.8 190.89 24.576C191.146 23.456 191.386 22.352 191.61 21.264C191.834 20.176 191.946 19.296 191.946 18.624C191.946 16.992 191.37 16.176 190.218 16.176C189.386 16.176 188.65 16.592 188.01 17.424C187.37 18.224 186.858 19.28 186.474 20.592L183.21 36H176.298L179.802 19.44C179.898 19.056 179.946 18.656 179.946 18.24C179.946 16.832 179.466 16.128 178.506 16.128C177.61 16.128 176.826 16.544 176.154 17.376C175.514 18.176 175.002 19.248 174.618 20.592L171.354 36H164.442L169.53 12H176.442L175.914 14.496C177.546 12.672 179.498 11.76 181.77 11.76C184.586 11.76 186.234 13.136 186.714 15.888C188.474 13.168 190.698 11.808 193.386 11.808C195.018 11.808 196.314 12.256 197.274 13.152C198.234 14.048 198.714 15.408 198.714 17.232C198.714 18.16 198.602 19.2 198.378 20.352C198.154 21.472 197.834 22.848 197.418 24.48C197.162 25.472 196.922 26.448 196.698 27.408C196.506 28.336 196.41 29.072 196.41 29.616C196.41 30.256 196.554 30.752 196.842 31.104C197.13 31.456 197.626 31.632 198.33 31.632C199.098 31.632 199.626 31.536 199.914 31.344C199.722 32.976 199.13 34.208 198.138 35.04C197.178 35.872 196.01 36.288 194.634 36.288Z" fill="black"/>
</svg>
